<svg xmlns="http://www.w3.org/2000/svg" xmlns:xlink="http://www.w3.org/1999/xlink" width="960" zoomAndPan="magnify" viewBox="0 0 720 368.999991" height="492" preserveAspectRatio="xMidYMid meet" version="1.0"><defs><g/></defs><g fill="#cd8605" fill-opacity="0.502"><g transform="translate(83.333661, 242.487459)"><g><path d="M 87.90625 -9.40625 C 78.394531 -8.039062 68.132812 -10.863281 57.125 -17.875 L 56.578125 -8.078125 L 22.34375 -3.1875 L 33.078125 -159 L 67.578125 -168.78125 L 58.109375 -31.34375 C 62.992188 -28.8125 67.734375 -27.875 72.328125 -28.53125 C 81.367188 -29.820312 88.585938 -36.1875 93.984375 -47.625 C 99.378906 -59.070312 102.828125 -73.144531 104.328125 -89.84375 C 105.828125 -106.550781 105.398438 -123.148438 103.046875 -139.640625 C 100.828125 -155.171875 96.148438 -166.101562 89.015625 -172.4375 C 81.878906 -178.78125 72.84375 -181.171875 61.90625 -179.609375 C 50.019531 -177.910156 39.691406 -174.046875 30.921875 -168.015625 C 22.160156 -161.992188 15.707031 -154.238281 11.5625 -144.75 C 7.425781 -135.269531 6.195312 -124.671875 7.875 -112.953125 C 8.707031 -107.078125 9.84375 -103.070312 11.28125 -100.9375 C 12.726562 -98.800781 13.476562 -97.578125 13.53125 -97.265625 C 5.28125 -96.085938 -1.269531 -96.925781 -6.125 -99.78125 C -10.988281 -102.644531 -13.972656 -107.960938 -15.078125 -115.734375 C -16.617188 -126.503906 -14.035156 -137.300781 -7.328125 -148.125 C -0.628906 -158.957031 9.070312 -168.269531 21.78125 -176.0625 C 34.5 -183.851562 48.703125 -188.875 64.390625 -191.125 C 86.097656 -194.21875 103.015625 -190.082031 115.140625 -178.71875 C 127.273438 -167.351562 134.769531 -151.691406 137.625 -131.734375 C 140.207031 -113.660156 139.695312 -95.429688 136.09375 -77.046875 C 132.5 -58.671875 126.421875 -43.207031 117.859375 -30.65625 C 109.304688 -18.113281 99.320312 -11.03125 87.90625 -9.40625 Z M 87.90625 -9.40625 "/></g></g></g><g fill="#cd8605" fill-opacity="0.502"><g transform="translate(233.7075, 221.555071)"><g><path d="M 57.28125 0.765625 C 39.207031 1.734375 25.691406 -2.109375 16.734375 -10.765625 C 7.773438 -19.421875 2.722656 -34.300781 1.578125 -55.40625 C 0.671875 -72.175781 2.53125 -90.382812 7.15625 -110.03125 C 11.789062 -129.6875 20.003906 -146.765625 31.796875 -161.265625 C 43.597656 -175.773438 59.171875 -183.550781 78.515625 -184.59375 C 90.503906 -185.238281 100.316406 -183.125 107.953125 -178.25 C 115.597656 -173.375 119.710938 -165.5 120.296875 -154.625 C 120.671875 -147.75 119.601562 -142.28125 117.09375 -138.21875 C 114.59375 -134.15625 110.46875 -131.96875 104.71875 -131.65625 C 98.957031 -131.351562 94.285156 -133.1875 90.703125 -137.15625 C 93.503906 -138.75 95.90625 -141.765625 97.90625 -146.203125 C 99.914062 -150.640625 100.796875 -155.175781 100.546875 -159.8125 C 100.304688 -164.125 98.953125 -167.578125 96.484375 -170.171875 C 94.015625 -172.765625 90.226562 -173.925781 85.125 -173.65625 C 76.644531 -173.195312 68.882812 -166.960938 61.84375 -154.953125 C 54.800781 -142.941406 49.394531 -128.015625 45.625 -110.171875 C 41.863281 -92.335938 40.421875 -75.273438 41.296875 -58.984375 C 41.953125 -46.828125 44.53125 -37.660156 49.03125 -31.484375 C 53.539062 -25.316406 61.226562 -22.53125 72.09375 -23.125 C 81.53125 -23.632812 90.132812 -26.1875 97.90625 -30.78125 C 105.675781 -35.375 112.226562 -41.65625 117.5625 -49.625 L 123.1875 -47.546875 C 119.738281 -37.253906 114.28125 -28.535156 106.8125 -21.390625 C 99.34375 -14.253906 91.21875 -8.882812 82.4375 -5.28125 C 73.65625 -1.6875 65.269531 0.328125 57.28125 0.765625 Z M 57.28125 0.765625 "/></g></g></g><g fill="#cd8605" fill-opacity="0.502"><g transform="translate(346.798477, 215.389292)"><g><path d="M 58.65625 -159.34375 C 48.570312 -159.207031 40.78125 -155.503906 35.28125 -148.234375 C 29.789062 -140.972656 26.878906 -128.304688 26.546875 -110.234375 C 26.441406 -104.304688 26.925781 -100.171875 28 -97.828125 C 29.070312 -95.484375 29.609375 -94.15625 29.609375 -93.84375 C 20.960938 -94 14.546875 -95.914062 10.359375 -99.59375 C 6.179688 -103.269531 4.171875 -109.269531 4.328125 -117.59375 C 4.535156 -128.945312 7.53125 -139.257812 13.3125 -148.53125 C 19.09375 -157.800781 28.15625 -165.203125 40.5 -170.734375 C 52.84375 -176.265625 68.460938 -178.859375 87.359375 -178.515625 C 91.203125 -178.441406 96.316406 -177.941406 102.703125 -177.015625 C 114.210938 -175.691406 122.367188 -174.984375 127.171875 -174.890625 C 135.640625 -174.734375 142.851562 -175.5625 148.8125 -177.375 C 148.3125 -175.945312 147.375 -172.800781 146 -167.9375 C 144.625 -163.070312 142.265625 -158.945312 138.921875 -155.5625 C 135.578125 -152.1875 131.097656 -149.992188 125.484375 -148.984375 C 116.035156 -149.160156 104.859375 -150.890625 91.953125 -154.171875 L 80.984375 -106.578125 L 116.046875 -105.9375 L 111.875 -88.234375 L 76.8125 -88.875 L 55.6875 1.03125 L 21.125 0.390625 Z M 58.65625 -159.34375 "/></g></g></g><g fill="#cd8605" fill-opacity="0.502"><g transform="translate(452.730269, 217.507492)"><g><path d="M 23.609375 3.078125 C 15.953125 2.546875 9.929688 -0.273438 5.546875 -5.390625 C 1.160156 -10.503906 -0.695312 -17.851562 -0.03125 -27.4375 C 0.238281 -31.425781 1.238281 -36.570312 2.96875 -42.875 L 36.875 -161.125 L 72.671875 -163.46875 L 36.1875 -36.015625 C 35.382812 -33.660156 34.890625 -31.125 34.703125 -28.40625 C 34.472656 -25.21875 35.066406 -22.890625 36.484375 -21.421875 C 37.910156 -19.960938 40.382812 -19.113281 43.90625 -18.875 C 48.53125 -18.550781 52.972656 -20.207031 57.234375 -23.84375 C 61.503906 -27.488281 64.734375 -32.359375 66.921875 -38.453125 L 77 -37.765625 C 69.882812 -20.921875 61.484375 -9.742188 51.796875 -4.234375 C 42.109375 1.265625 32.710938 3.703125 23.609375 3.078125 Z M 23.609375 3.078125 "/></g></g></g><g fill="#cd8605" fill-opacity="0.502"><g transform="translate(499.681507, 220.501796)"><g><path d="M 53.234375 -128.34375 C 47.984375 -128.863281 43.707031 -131.140625 40.40625 -135.171875 C 37.113281 -139.203125 35.734375 -143.847656 36.265625 -149.109375 C 36.796875 -154.359375 39.082031 -158.671875 43.125 -162.046875 C 47.164062 -165.421875 51.8125 -166.847656 57.0625 -166.328125 C 62.320312 -165.796875 66.632812 -163.46875 70 -159.34375 C 73.375 -155.21875 74.796875 -150.53125 74.265625 -145.28125 C 73.734375 -140.019531 71.410156 -135.75 67.296875 -132.46875 C 63.179688 -129.1875 58.492188 -127.8125 53.234375 -128.34375 Z M 23.5 3.828125 C 15.863281 3.054688 9.9375 0.046875 5.71875 -5.203125 C 1.5 -10.460938 -0.125 -17.867188 0.84375 -27.421875 C 1.238281 -31.398438 2.394531 -36.515625 4.3125 -42.765625 L 28.296875 -117.8125 L 62.703125 -114.34375 L 37.3125 -34.859375 C 36.425781 -32.523438 35.84375 -30.003906 35.5625 -27.296875 C 35.25 -24.117188 35.78125 -21.773438 37.15625 -20.265625 C 38.53125 -18.753906 40.96875 -17.820312 44.46875 -17.46875 C 49.09375 -17 53.59375 -18.515625 57.96875 -22.015625 C 62.34375 -25.523438 65.71875 -30.296875 68.09375 -36.328125 L 78.140625 -35.3125 C 70.503906 -18.707031 61.757812 -7.800781 51.90625 -2.59375 C 42.050781 2.601562 32.582031 4.742188 23.5 3.828125 Z M 23.5 3.828125 "/></g></g></g><g fill="#cd8605" fill-opacity="0.502"><g transform="translate(545.239095, 224.320065)"><g><path d="M 85.1875 14.703125 C 77.925781 13.578125 72.394531 9.3125 68.59375 1.90625 C 64.800781 -5.488281 62.832031 -16.484375 62.6875 -31.078125 L 23.734375 3.6875 L 6.640625 1.03125 L 62.984375 -45.609375 L 63.328125 -72.78125 C 63.265625 -80.726562 62.769531 -86.148438 61.84375 -89.046875 C 60.914062 -91.953125 59.425781 -93.5625 57.375 -93.875 C 54.207031 -94.375 50.304688 -92.753906 45.671875 -89.015625 C 41.046875 -85.273438 36.191406 -79.304688 31.109375 -71.109375 C 26.023438 -62.910156 21.175781 -52.847656 16.5625 -40.921875 L 6.609375 -42.46875 C 14.546875 -63.257812 24.226562 -80.460938 35.65625 -94.078125 C 47.09375 -107.703125 60.085938 -113.382812 74.640625 -111.125 C 83.179688 -109.789062 88.953125 -106.015625 91.953125 -99.796875 C 94.953125 -93.578125 96.253906 -86.609375 95.859375 -78.890625 L 95.203125 -60.515625 C 103.179688 -67.066406 109.253906 -72.8125 113.421875 -77.75 C 117.585938 -82.6875 120.164062 -87.265625 121.15625 -91.484375 C 118.882812 -91.503906 117.515625 -91.550781 117.046875 -91.625 C 113.078125 -92.238281 110.414062 -93.910156 109.0625 -96.640625 C 107.707031 -99.367188 107.335938 -102.707031 107.953125 -106.65625 C 108.566406 -110.613281 110.5625 -113.300781 113.9375 -114.71875 C 117.320312 -116.132812 121.304688 -116.488281 125.890625 -115.78125 C 130.003906 -115.132812 132.910156 -112.453125 134.609375 -107.734375 C 136.304688 -103.015625 136.710938 -97.804688 135.828125 -92.109375 C 134.742188 -85.148438 131.28125 -78.519531 125.4375 -72.21875 C 119.601562 -65.925781 109.394531 -57.03125 94.8125 -45.53125 L 94.34375 -28.578125 C 94.113281 -20.835938 94.90625 -15.242188 96.71875 -11.796875 C 98.539062 -8.359375 101.585938 -6.304688 105.859375 -5.640625 C 110.453125 -4.921875 115.023438 -6.191406 119.578125 -9.453125 C 124.140625 -12.722656 127.769531 -17.304688 130.46875 -23.203125 L 140.4375 -21.65625 C 132.175781 -6.09375 123.117188 4.195312 113.265625 9.21875 C 103.410156 14.25 94.050781 16.078125 85.1875 14.703125 Z M 85.1875 14.703125 "/></g></g></g><g fill="#cd8605" fill-opacity="0.302"><g transform="translate(98.279501, 229.946413)"><g><path d="M 87.90625 -9.40625 C 78.394531 -8.039062 68.132812 -10.863281 57.125 -17.875 L 56.578125 -8.078125 L 22.34375 -3.1875 L 33.078125 -159 L 67.578125 -168.78125 L 58.109375 -31.34375 C 62.992188 -28.8125 67.734375 -27.875 72.328125 -28.53125 C 81.367188 -29.820312 88.585938 -36.1875 93.984375 -47.625 C 99.378906 -59.070312 102.828125 -73.144531 104.328125 -89.84375 C 105.828125 -106.550781 105.398438 -123.148438 103.046875 -139.640625 C 100.828125 -155.171875 96.148438 -166.101562 89.015625 -172.4375 C 81.878906 -178.78125 72.84375 -181.171875 61.90625 -179.609375 C 50.019531 -177.910156 39.691406 -174.046875 30.921875 -168.015625 C 22.160156 -161.992188 15.707031 -154.238281 11.5625 -144.75 C 7.425781 -135.269531 6.195312 -124.671875 7.875 -112.953125 C 8.707031 -107.078125 9.84375 -103.070312 11.28125 -100.9375 C 12.726562 -98.800781 13.476562 -97.578125 13.53125 -97.265625 C 5.28125 -96.085938 -1.269531 -96.925781 -6.125 -99.78125 C -10.988281 -102.644531 -13.972656 -107.960938 -15.078125 -115.734375 C -16.617188 -126.503906 -14.035156 -137.300781 -7.328125 -148.125 C -0.628906 -158.957031 9.070312 -168.269531 21.78125 -176.0625 C 34.5 -183.851562 48.703125 -188.875 64.390625 -191.125 C 86.097656 -194.21875 103.015625 -190.082031 115.140625 -178.71875 C 127.273438 -167.351562 134.769531 -151.691406 137.625 -131.734375 C 140.207031 -113.660156 139.695312 -95.429688 136.09375 -77.046875 C 132.5 -58.671875 126.421875 -43.207031 117.859375 -30.65625 C 109.304688 -18.113281 99.320312 -11.03125 87.90625 -9.40625 Z M 87.90625 -9.40625 "/></g></g></g><g fill="#cd8605" fill-opacity="0.302"><g transform="translate(248.653314, 209.014025)"><g><path d="M 57.28125 0.765625 C 39.207031 1.734375 25.691406 -2.109375 16.734375 -10.765625 C 7.773438 -19.421875 2.722656 -34.300781 1.578125 -55.40625 C 0.671875 -72.175781 2.53125 -90.382812 7.15625 -110.03125 C 11.789062 -129.6875 20.003906 -146.765625 31.796875 -161.265625 C 43.597656 -175.773438 59.171875 -183.550781 78.515625 -184.59375 C 90.503906 -185.238281 100.316406 -183.125 107.953125 -178.25 C 115.597656 -173.375 119.710938 -165.5 120.296875 -154.625 C 120.671875 -147.75 119.601562 -142.28125 117.09375 -138.21875 C 114.59375 -134.15625 110.46875 -131.96875 104.71875 -131.65625 C 98.957031 -131.351562 94.285156 -133.1875 90.703125 -137.15625 C 93.503906 -138.75 95.90625 -141.765625 97.90625 -146.203125 C 99.914062 -150.640625 100.796875 -155.175781 100.546875 -159.8125 C 100.304688 -164.125 98.953125 -167.578125 96.484375 -170.171875 C 94.015625 -172.765625 90.226562 -173.925781 85.125 -173.65625 C 76.644531 -173.195312 68.882812 -166.960938 61.84375 -154.953125 C 54.800781 -142.941406 49.394531 -128.015625 45.625 -110.171875 C 41.863281 -92.335938 40.421875 -75.273438 41.296875 -58.984375 C 41.953125 -46.828125 44.53125 -37.660156 49.03125 -31.484375 C 53.539062 -25.316406 61.226562 -22.53125 72.09375 -23.125 C 81.53125 -23.632812 90.132812 -26.1875 97.90625 -30.78125 C 105.675781 -35.375 112.226562 -41.65625 117.5625 -49.625 L 123.1875 -47.546875 C 119.738281 -37.253906 114.28125 -28.535156 106.8125 -21.390625 C 99.34375 -14.253906 91.21875 -8.882812 82.4375 -5.28125 C 73.65625 -1.6875 65.269531 0.328125 57.28125 0.765625 Z M 57.28125 0.765625 "/></g></g></g><g fill="#cd8605" fill-opacity="0.302"><g transform="translate(361.744308, 202.848246)"><g><path d="M 58.65625 -159.34375 C 48.570312 -159.207031 40.78125 -155.503906 35.28125 -148.234375 C 29.789062 -140.972656 26.878906 -128.304688 26.546875 -110.234375 C 26.441406 -104.304688 26.925781 -100.171875 28 -97.828125 C 29.070312 -95.484375 29.609375 -94.15625 29.609375 -93.84375 C 20.960938 -94 14.546875 -95.914062 10.359375 -99.59375 C 6.179688 -103.269531 4.171875 -109.269531 4.328125 -117.59375 C 4.535156 -128.945312 7.53125 -139.257812 13.3125 -148.53125 C 19.09375 -157.800781 28.15625 -165.203125 40.5 -170.734375 C 52.84375 -176.265625 68.460938 -178.859375 87.359375 -178.515625 C 91.203125 -178.441406 96.316406 -177.941406 102.703125 -177.015625 C 114.210938 -175.691406 122.367188 -174.984375 127.171875 -174.890625 C 135.640625 -174.734375 142.851562 -175.5625 148.8125 -177.375 C 148.3125 -175.945312 147.375 -172.800781 146 -167.9375 C 144.625 -163.070312 142.265625 -158.945312 138.921875 -155.5625 C 135.578125 -152.1875 131.097656 -149.992188 125.484375 -148.984375 C 116.035156 -149.160156 104.859375 -150.890625 91.953125 -154.171875 L 80.984375 -106.578125 L 116.046875 -105.9375 L 111.875 -88.234375 L 76.8125 -88.875 L 55.6875 1.03125 L 21.125 0.390625 Z M 58.65625 -159.34375 "/></g></g></g><g fill="#cd8605" fill-opacity="0.302"><g transform="translate(467.676124, 204.966447)"><g><path d="M 23.609375 3.078125 C 15.953125 2.546875 9.929688 -0.273438 5.546875 -5.390625 C 1.160156 -10.503906 -0.695312 -17.851562 -0.03125 -27.4375 C 0.238281 -31.425781 1.238281 -36.570312 2.96875 -42.875 L 36.875 -161.125 L 72.671875 -163.46875 L 36.1875 -36.015625 C 35.382812 -33.660156 34.890625 -31.125 34.703125 -28.40625 C 34.472656 -25.21875 35.066406 -22.890625 36.484375 -21.421875 C 37.910156 -19.960938 40.382812 -19.113281 43.90625 -18.875 C 48.53125 -18.550781 52.972656 -20.207031 57.234375 -23.84375 C 61.503906 -27.488281 64.734375 -32.359375 66.921875 -38.453125 L 77 -37.765625 C 69.882812 -20.921875 61.484375 -9.742188 51.796875 -4.234375 C 42.109375 1.265625 32.710938 3.703125 23.609375 3.078125 Z M 23.609375 3.078125 "/></g></g></g><g fill="#cd8605" fill-opacity="0.302"><g transform="translate(514.627314, 207.96075)"><g><path d="M 53.234375 -128.34375 C 47.984375 -128.863281 43.707031 -131.140625 40.40625 -135.171875 C 37.113281 -139.203125 35.734375 -143.847656 36.265625 -149.109375 C 36.796875 -154.359375 39.082031 -158.671875 43.125 -162.046875 C 47.164062 -165.421875 51.8125 -166.847656 57.0625 -166.328125 C 62.320312 -165.796875 66.632812 -163.46875 70 -159.34375 C 73.375 -155.21875 74.796875 -150.53125 74.265625 -145.28125 C 73.734375 -140.019531 71.410156 -135.75 67.296875 -132.46875 C 63.179688 -129.1875 58.492188 -127.8125 53.234375 -128.34375 Z M 23.5 3.828125 C 15.863281 3.054688 9.9375 0.046875 5.71875 -5.203125 C 1.5 -10.460938 -0.125 -17.867188 0.84375 -27.421875 C 1.238281 -31.398438 2.394531 -36.515625 4.3125 -42.765625 L 28.296875 -117.8125 L 62.703125 -114.34375 L 37.3125 -34.859375 C 36.425781 -32.523438 35.84375 -30.003906 35.5625 -27.296875 C 35.25 -24.117188 35.78125 -21.773438 37.15625 -20.265625 C 38.53125 -18.753906 40.96875 -17.820312 44.46875 -17.46875 C 49.09375 -17 53.59375 -18.515625 57.96875 -22.015625 C 62.34375 -25.523438 65.71875 -30.296875 68.09375 -36.328125 L 78.140625 -35.3125 C 70.503906 -18.707031 61.757812 -7.800781 51.90625 -2.59375 C 42.050781 2.601562 32.582031 4.742188 23.5 3.828125 Z M 23.5 3.828125 "/></g></g></g><g fill="#cd8605" fill-opacity="0.302"><g transform="translate(560.184902, 211.779019)"><g><path d="M 85.1875 14.703125 C 77.925781 13.578125 72.394531 9.3125 68.59375 1.90625 C 64.800781 -5.488281 62.832031 -16.484375 62.6875 -31.078125 L 23.734375 3.6875 L 6.640625 1.03125 L 62.984375 -45.609375 L 63.328125 -72.78125 C 63.265625 -80.726562 62.769531 -86.148438 61.84375 -89.046875 C 60.914062 -91.953125 59.425781 -93.5625 57.375 -93.875 C 54.207031 -94.375 50.304688 -92.753906 45.671875 -89.015625 C 41.046875 -85.273438 36.191406 -79.304688 31.109375 -71.109375 C 26.023438 -62.910156 21.175781 -52.847656 16.5625 -40.921875 L 6.609375 -42.46875 C 14.546875 -63.257812 24.226562 -80.460938 35.65625 -94.078125 C 47.09375 -107.703125 60.085938 -113.382812 74.640625 -111.125 C 83.179688 -109.789062 88.953125 -106.015625 91.953125 -99.796875 C 94.953125 -93.578125 96.253906 -86.609375 95.859375 -78.890625 L 95.203125 -60.515625 C 103.179688 -67.066406 109.253906 -72.8125 113.421875 -77.75 C 117.585938 -82.6875 120.164062 -87.265625 121.15625 -91.484375 C 118.882812 -91.503906 117.515625 -91.550781 117.046875 -91.625 C 113.078125 -92.238281 110.414062 -93.910156 109.0625 -96.640625 C 107.707031 -99.367188 107.335938 -102.707031 107.953125 -106.65625 C 108.566406 -110.613281 110.5625 -113.300781 113.9375 -114.71875 C 117.320312 -116.132812 121.304688 -116.488281 125.890625 -115.78125 C 130.003906 -115.132812 132.910156 -112.453125 134.609375 -107.734375 C 136.304688 -103.015625 136.710938 -97.804688 135.828125 -92.109375 C 134.742188 -85.148438 131.28125 -78.519531 125.4375 -72.21875 C 119.601562 -65.925781 109.394531 -57.03125 94.8125 -45.53125 L 94.34375 -28.578125 C 94.113281 -20.835938 94.90625 -15.242188 96.71875 -11.796875 C 98.539062 -8.359375 101.585938 -6.304688 105.859375 -5.640625 C 110.453125 -4.921875 115.023438 -6.191406 119.578125 -9.453125 C 124.140625 -12.722656 127.769531 -17.304688 130.46875 -23.203125 L 140.4375 -21.65625 C 132.175781 -6.09375 123.117188 4.195312 113.265625 9.21875 C 103.410156 14.25 94.050781 16.078125 85.1875 14.703125 Z M 85.1875 14.703125 "/></g></g></g><g fill="#cd8605" fill-opacity="1"><g transform="translate(68.387829, 255.028504)"><g><path d="M 87.90625 -9.40625 C 78.394531 -8.039062 68.132812 -10.863281 57.125 -17.875 L 56.578125 -8.078125 L 22.34375 -3.1875 L 33.078125 -159 L 67.578125 -168.78125 L 58.109375 -31.34375 C 62.992188 -28.8125 67.734375 -27.875 72.328125 -28.53125 C 81.367188 -29.820312 88.585938 -36.1875 93.984375 -47.625 C 99.378906 -59.070312 102.828125 -73.144531 104.328125 -89.84375 C 105.828125 -106.550781 105.398438 -123.148438 103.046875 -139.640625 C 100.828125 -155.171875 96.148438 -166.101562 89.015625 -172.4375 C 81.878906 -178.78125 72.84375 -181.171875 61.90625 -179.609375 C 50.019531 -177.910156 39.691406 -174.046875 30.921875 -168.015625 C 22.160156 -161.992188 15.707031 -154.238281 11.5625 -144.75 C 7.425781 -135.269531 6.195312 -124.671875 7.875 -112.953125 C 8.707031 -107.078125 9.84375 -103.070312 11.28125 -100.9375 C 12.726562 -98.800781 13.476562 -97.578125 13.53125 -97.265625 C 5.28125 -96.085938 -1.269531 -96.925781 -6.125 -99.78125 C -10.988281 -102.644531 -13.972656 -107.960938 -15.078125 -115.734375 C -16.617188 -126.503906 -14.035156 -137.300781 -7.328125 -148.125 C -0.628906 -158.957031 9.070312 -168.269531 21.78125 -176.0625 C 34.5 -183.851562 48.703125 -188.875 64.390625 -191.125 C 86.097656 -194.21875 103.015625 -190.082031 115.140625 -178.71875 C 127.273438 -167.351562 134.769531 -151.691406 137.625 -131.734375 C 140.207031 -113.660156 139.695312 -95.429688 136.09375 -77.046875 C 132.5 -58.671875 126.421875 -43.207031 117.859375 -30.65625 C 109.304688 -18.113281 99.320312 -11.03125 87.90625 -9.40625 Z M 87.90625 -9.40625 "/></g></g></g><g fill="#cd8605" fill-opacity="1"><g transform="translate(218.761657, 234.096117)"><g><path d="M 57.28125 0.765625 C 39.207031 1.734375 25.691406 -2.109375 16.734375 -10.765625 C 7.773438 -19.421875 2.722656 -34.300781 1.578125 -55.40625 C 0.671875 -72.175781 2.53125 -90.382812 7.15625 -110.03125 C 11.789062 -129.6875 20.003906 -146.765625 31.796875 -161.265625 C 43.597656 -175.773438 59.171875 -183.550781 78.515625 -184.59375 C 90.503906 -185.238281 100.316406 -183.125 107.953125 -178.25 C 115.597656 -173.375 119.710938 -165.5 120.296875 -154.625 C 120.671875 -147.75 119.601562 -142.28125 117.09375 -138.21875 C 114.59375 -134.15625 110.46875 -131.96875 104.71875 -131.65625 C 98.957031 -131.351562 94.285156 -133.1875 90.703125 -137.15625 C 93.503906 -138.75 95.90625 -141.765625 97.90625 -146.203125 C 99.914062 -150.640625 100.796875 -155.175781 100.546875 -159.8125 C 100.304688 -164.125 98.953125 -167.578125 96.484375 -170.171875 C 94.015625 -172.765625 90.226562 -173.925781 85.125 -173.65625 C 76.644531 -173.195312 68.882812 -166.960938 61.84375 -154.953125 C 54.800781 -142.941406 49.394531 -128.015625 45.625 -110.171875 C 41.863281 -92.335938 40.421875 -75.273438 41.296875 -58.984375 C 41.953125 -46.828125 44.53125 -37.660156 49.03125 -31.484375 C 53.539062 -25.316406 61.226562 -22.53125 72.09375 -23.125 C 81.53125 -23.632812 90.132812 -26.1875 97.90625 -30.78125 C 105.675781 -35.375 112.226562 -41.65625 117.5625 -49.625 L 123.1875 -47.546875 C 119.738281 -37.253906 114.28125 -28.535156 106.8125 -21.390625 C 99.34375 -14.253906 91.21875 -8.882812 82.4375 -5.28125 C 73.65625 -1.6875 65.269531 0.328125 57.28125 0.765625 Z M 57.28125 0.765625 "/></g></g></g><g fill="#fffef4" fill-opacity="1"><g transform="translate(331.852649, 227.930338)"><g><path d="M 58.65625 -159.34375 C 48.570312 -159.207031 40.78125 -155.503906 35.28125 -148.234375 C 29.789062 -140.972656 26.878906 -128.304688 26.546875 -110.234375 C 26.441406 -104.304688 26.925781 -100.171875 28 -97.828125 C 29.070312 -95.484375 29.609375 -94.15625 29.609375 -93.84375 C 20.960938 -94 14.546875 -95.914062 10.359375 -99.59375 C 6.179688 -103.269531 4.171875 -109.269531 4.328125 -117.59375 C 4.535156 -128.945312 7.53125 -139.257812 13.3125 -148.53125 C 19.09375 -157.800781 28.15625 -165.203125 40.5 -170.734375 C 52.84375 -176.265625 68.460938 -178.859375 87.359375 -178.515625 C 91.203125 -178.441406 96.316406 -177.941406 102.703125 -177.015625 C 114.210938 -175.691406 122.367188 -174.984375 127.171875 -174.890625 C 135.640625 -174.734375 142.851562 -175.5625 148.8125 -177.375 C 148.3125 -175.945312 147.375 -172.800781 146 -167.9375 C 144.625 -163.070312 142.265625 -158.945312 138.921875 -155.5625 C 135.578125 -152.1875 131.097656 -149.992188 125.484375 -148.984375 C 116.035156 -149.160156 104.859375 -150.890625 91.953125 -154.171875 L 80.984375 -106.578125 L 116.046875 -105.9375 L 111.875 -88.234375 L 76.8125 -88.875 L 55.6875 1.03125 L 21.125 0.390625 Z M 58.65625 -159.34375 "/></g></g></g><g fill="#fffef4" fill-opacity="1"><g transform="translate(437.784462, 230.048539)"><g><path d="M 23.609375 3.078125 C 15.953125 2.546875 9.929688 -0.273438 5.546875 -5.390625 C 1.160156 -10.503906 -0.695312 -17.851562 -0.03125 -27.4375 C 0.238281 -31.425781 1.238281 -36.570312 2.96875 -42.875 L 36.875 -161.125 L 72.671875 -163.46875 L 36.1875 -36.015625 C 35.382812 -33.660156 34.890625 -31.125 34.703125 -28.40625 C 34.472656 -25.21875 35.066406 -22.890625 36.484375 -21.421875 C 37.910156 -19.960938 40.382812 -19.113281 43.90625 -18.875 C 48.53125 -18.550781 52.972656 -20.207031 57.234375 -23.84375 C 61.503906 -27.488281 64.734375 -32.359375 66.921875 -38.453125 L 77 -37.765625 C 69.882812 -20.921875 61.484375 -9.742188 51.796875 -4.234375 C 42.109375 1.265625 32.710938 3.703125 23.609375 3.078125 Z M 23.609375 3.078125 "/></g></g></g><g fill="#fffef4" fill-opacity="1"><g transform="translate(484.735652, 233.042842)"><g><path d="M 53.234375 -128.34375 C 47.984375 -128.863281 43.707031 -131.140625 40.40625 -135.171875 C 37.113281 -139.203125 35.734375 -143.847656 36.265625 -149.109375 C 36.796875 -154.359375 39.082031 -158.671875 43.125 -162.046875 C 47.164062 -165.421875 51.8125 -166.847656 57.0625 -166.328125 C 62.320312 -165.796875 66.632812 -163.46875 70 -159.34375 C 73.375 -155.21875 74.796875 -150.53125 74.265625 -145.28125 C 73.734375 -140.019531 71.410156 -135.75 67.296875 -132.46875 C 63.179688 -129.1875 58.492188 -127.8125 53.234375 -128.34375 Z M 23.5 3.828125 C 15.863281 3.054688 9.9375 0.046875 5.71875 -5.203125 C 1.5 -10.460938 -0.125 -17.867188 0.84375 -27.421875 C 1.238281 -31.398438 2.394531 -36.515625 4.3125 -42.765625 L 28.296875 -117.8125 L 62.703125 -114.34375 L 37.3125 -34.859375 C 36.425781 -32.523438 35.84375 -30.003906 35.5625 -27.296875 C 35.25 -24.117188 35.78125 -21.773438 37.15625 -20.265625 C 38.53125 -18.753906 40.96875 -17.820312 44.46875 -17.46875 C 49.09375 -17 53.59375 -18.515625 57.96875 -22.015625 C 62.34375 -25.523438 65.71875 -30.296875 68.09375 -36.328125 L 78.140625 -35.3125 C 70.503906 -18.707031 61.757812 -7.800781 51.90625 -2.59375 C 42.050781 2.601562 32.582031 4.742188 23.5 3.828125 Z M 23.5 3.828125 "/></g></g></g><g fill="#fffef4" fill-opacity="1"><g transform="translate(530.29324, 236.861111)"><g><path d="M 85.1875 14.703125 C 77.925781 13.578125 72.394531 9.3125 68.59375 1.90625 C 64.800781 -5.488281 62.832031 -16.484375 62.6875 -31.078125 L 23.734375 3.6875 L 6.640625 1.03125 L 62.984375 -45.609375 L 63.328125 -72.78125 C 63.265625 -80.726562 62.769531 -86.148438 61.84375 -89.046875 C 60.914062 -91.953125 59.425781 -93.5625 57.375 -93.875 C 54.207031 -94.375 50.304688 -92.753906 45.671875 -89.015625 C 41.046875 -85.273438 36.191406 -79.304688 31.109375 -71.109375 C 26.023438 -62.910156 21.175781 -52.847656 16.5625 -40.921875 L 6.609375 -42.46875 C 14.546875 -63.257812 24.226562 -80.460938 35.65625 -94.078125 C 47.09375 -107.703125 60.085938 -113.382812 74.640625 -111.125 C 83.179688 -109.789062 88.953125 -106.015625 91.953125 -99.796875 C 94.953125 -93.578125 96.253906 -86.609375 95.859375 -78.890625 L 95.203125 -60.515625 C 103.179688 -67.066406 109.253906 -72.8125 113.421875 -77.75 C 117.585938 -82.6875 120.164062 -87.265625 121.15625 -91.484375 C 118.882812 -91.503906 117.515625 -91.550781 117.046875 -91.625 C 113.078125 -92.238281 110.414062 -93.910156 109.0625 -96.640625 C 107.707031 -99.367188 107.335938 -102.707031 107.953125 -106.65625 C 108.566406 -110.613281 110.5625 -113.300781 113.9375 -114.71875 C 117.320312 -116.132812 121.304688 -116.488281 125.890625 -115.78125 C 130.003906 -115.132812 132.910156 -112.453125 134.609375 -107.734375 C 136.304688 -103.015625 136.710938 -97.804688 135.828125 -92.109375 C 134.742188 -85.148438 131.28125 -78.519531 125.4375 -72.21875 C 119.601562 -65.925781 109.394531 -57.03125 94.8125 -45.53125 L 94.34375 -28.578125 C 94.113281 -20.835938 94.90625 -15.242188 96.71875 -11.796875 C 98.539062 -8.359375 101.585938 -6.304688 105.859375 -5.640625 C 110.453125 -4.921875 115.023438 -6.191406 119.578125 -9.453125 C 124.140625 -12.722656 127.769531 -17.304688 130.46875 -23.203125 L 140.4375 -21.65625 C 132.175781 -6.09375 123.117188 4.195312 113.265625 9.21875 C 103.410156 14.25 94.050781 16.078125 85.1875 14.703125 Z M 85.1875 14.703125 "/></g></g></g></svg>